<?xml version="1.0" encoding="UTF-8"?>
<svg width="200" height="200" version="1.1" viewBox="0 0 48.4 48.4" xmlns="http://www.w3.org/2000/svg">

    <path fill="#FFFFFF"
          d="m43.8 2.34h-39.1c-2.58 0-4.69 2.11-4.69 4.69s2.11 4.69 4.69 4.69h39.1c2.58 0 4.69-2.11 4.69-4.69s-2.11-4.69-4.69-4.69z"/>
    <path fill="#FFFFFF"
          d="m43.8 19.5h-39.1c-2.58 0-4.69 2.11-4.69 4.69s2.11 4.69 4.69 4.69h39.1c2.58 0 4.69-2.11 4.69-4.69s-2.11-4.69-4.69-4.69z"/>
    <path fill="#FFFFFF"
          d="m43.8 36.7h-39.1c-2.58 0-4.69 2.11-4.69 4.69s2.11 4.69 4.69 4.69h39.1c2.58 0 4.69-2.11 4.69-4.69s-2.11-4.69-4.69-4.69z"/>

</svg>
